<svg id="svg" version="1.1" xmlns="http://www.w3.org/2000/svg" xmlns:xlink="http://www.w3.org/1999/xlink" width="400" height="198.94403379091867" viewBox="0, 0, 400,198.94403379091867"><g id="svgg"><path id="path0" d="M102.955 54.080 C 98.902 57.555,94.788 61.079,93.813 61.911 C 90.864 64.426,87.130 67.626,85.970 68.631 C 85.368 69.153,81.652 72.339,77.711 75.711 C 73.771 79.083,69.809 82.480,68.906 83.259 L 67.265 84.677 67.264 117.861 L 67.264 151.045 68.756 151.045 L 70.249 151.045 70.249 118.557 L 70.249 86.069 74.570 82.388 C 76.947 80.363,79.298 78.344,79.794 77.901 C 80.290 77.458,81.855 76.115,83.271 74.916 C 84.687 73.717,86.210 72.416,86.654 72.024 C 87.572 71.216,101.142 59.573,102.408 58.507 C 102.863 58.124,104.113 57.072,105.184 56.169 C 106.256 55.266,107.207 54.527,107.298 54.527 C 107.389 54.527,107.463 76.244,107.463 102.786 L 107.463 151.045 108.955 151.045 L 110.448 151.045 110.448 99.403 C 110.448 71.000,110.420 47.761,110.385 47.761 C 110.351 47.761,107.007 50.604,102.955 54.080 M178.507 55.906 L 178.507 57.683 194.776 57.768 C 208.778 57.842,211.225 57.898,212.338 58.171 C 229.569 62.390,232.319 85.123,216.556 93.026 C 212.797 94.911,213.996 94.809,194.677 94.879 L 177.711 94.940 177.711 111.251 L 177.711 127.562 179.402 127.562 L 181.092 127.562 181.143 113.085 L 181.194 98.607 195.202 98.607 L 209.211 98.607 217.355 112.139 C 221.834 119.582,225.739 126.096,226.033 126.614 L 226.567 127.556 228.720 127.559 L 230.873 127.562 230.489 127.015 C 229.896 126.168,213.345 98.551,213.286 98.309 C 213.257 98.191,214.129 97.801,215.224 97.442 C 234.037 91.274,235.898 65.326,218.166 56.435 C 213.725 54.209,212.902 54.131,193.980 54.130 L 178.507 54.129 178.507 55.906 M269.991 54.254 C 269.914 54.331,269.851 70.857,269.851 90.978 L 269.851 127.562 271.642 127.562 L 273.433 127.562 273.433 96.574 C 273.433 70.244,273.474 65.630,273.707 65.878 C 273.858 66.038,274.526 67.557,275.191 69.254 C 276.382 72.289,277.157 74.205,281.997 86.070 C 283.336 89.353,284.991 93.428,285.675 95.124 C 289.444 104.475,297.996 125.508,298.479 126.617 L 298.891 127.562 300.839 127.561 L 302.786 127.559 304.120 124.227 C 304.854 122.395,306.273 118.881,307.274 116.418 C 308.276 113.955,309.836 110.104,310.743 107.861 C 311.649 105.617,313.395 101.318,314.622 98.308 C 317.236 91.895,319.208 87.041,321.495 81.393 C 322.404 79.149,323.966 75.299,324.966 72.836 C 325.967 70.373,327.027 67.754,327.322 67.015 C 327.617 66.276,327.927 65.672,328.009 65.672 C 328.092 65.672,328.159 79.597,328.159 96.617 L 328.159 127.562 329.950 127.562 L 331.741 127.562 331.741 90.837 L 331.741 54.113 330.199 54.171 L 328.657 54.229 325.019 63.184 C 323.018 68.109,320.716 73.796,319.903 75.821 C 319.091 77.846,317.716 81.249,316.847 83.383 C 315.979 85.517,313.592 91.383,311.543 96.418 C 309.494 101.453,307.023 107.542,306.051 109.950 C 305.080 112.358,303.543 116.164,302.635 118.408 C 301.728 120.652,300.905 122.488,300.806 122.488 C 300.707 122.488,300.340 121.771,299.991 120.896 C 299.642 120.020,298.349 116.841,297.117 113.831 C 294.846 108.284,293.065 103.900,290.447 97.413 C 288.244 91.955,285.844 86.045,283.375 80.000 C 282.146 76.990,280.582 73.139,279.898 71.443 C 278.631 68.298,275.638 60.920,273.884 56.617 L 272.910 54.229 271.521 54.171 C 270.757 54.140,270.069 54.177,269.991 54.254 M247.562 91.841 L 247.562 127.562 249.353 127.562 L 251.144 127.562 251.144 91.841 L 251.144 56.119 249.353 56.119 L 247.562 56.119 247.562 91.841 M120.796 106.766 L 120.796 151.045 122.289 151.045 L 123.781 151.045 123.781 106.766 L 123.781 62.488 122.289 62.488 L 120.796 62.488 120.796 106.766 M134.328 112.537 L 134.328 151.045 135.821 151.045 L 137.313 151.045 137.313 112.537 L 137.313 74.030 135.821 74.030 L 134.328 74.030 134.328 112.537 M147.662 118.200 L 147.662 151.045 149.155 151.045 L 150.648 151.045 150.598 118.259 L 150.547 85.473 149.104 85.414 L 147.662 85.356 147.662 118.200 M179.440 141.769 C 176.470 142.873,177.033 145.598,180.450 146.664 C 183.128 147.500,183.754 148.416,182.503 149.667 C 181.597 150.573,179.451 150.387,178.248 149.299 C 177.764 148.861,177.134 149.494,177.552 149.998 C 179.300 152.104,183.743 151.303,184.022 148.832 C 184.216 147.106,183.603 146.480,180.917 145.665 C 178.692 144.989,178.110 144.061,179.218 142.953 C 179.892 142.279,181.726 142.343,182.718 143.077 C 183.315 143.518,183.359 143.523,183.607 143.184 C 184.326 142.200,181.167 141.128,179.440 141.769 M207.561 141.667 C 202.046 143.473,203.725 151.993,209.427 151.138 C 213.798 150.482,214.695 144.032,210.703 141.968 C 209.995 141.601,208.266 141.436,207.561 141.667 M264.163 141.858 C 261.383 143.163,262.002 145.609,265.381 146.669 C 267.903 147.460,268.618 148.384,267.612 149.553 C 266.800 150.497,264.618 150.477,263.475 149.515 C 262.587 148.768,261.907 149.319,262.689 150.151 C 264.532 152.114,268.726 151.237,268.997 148.832 C 269.188 147.134,268.418 146.398,265.601 145.586 C 263.576 145.003,263.036 144.097,264.088 143.046 C 264.852 142.281,266.547 142.291,267.636 143.067 C 267.991 143.319,268.302 143.494,268.326 143.455 C 268.351 143.415,268.486 143.233,268.625 143.050 C 269.341 142.111,265.697 141.138,264.163 141.858 M287.760 141.678 C 284.016 142.817,283.011 147.452,285.936 150.094 C 287.491 151.499,290.186 151.561,291.802 150.229 L 292.537 149.623 292.537 147.946 L 292.537 146.269 290.448 146.269 L 288.358 146.269 288.358 146.766 C 288.358 147.256,288.384 147.264,289.961 147.264 L 291.563 147.264 291.503 148.303 C 291.386 150.328,288.333 151.004,286.598 149.390 C 283.171 146.202,287.339 140.344,291.030 143.159 C 292.046 143.934,292.665 143.547,291.820 142.665 C 290.921 141.727,289.076 141.278,287.760 141.678 M307.176 141.741 C 306.140 142.014,304.646 143.512,304.323 144.600 C 302.799 149.732,308.432 153.509,311.894 149.676 C 315.152 146.070,311.844 140.508,307.176 141.741 M186.070 142.081 C 186.070 142.426,186.233 142.477,187.512 142.529 L 188.955 142.587 189.009 146.816 L 189.063 151.045 189.552 151.045 L 190.042 151.045 190.096 146.816 L 190.149 142.587 191.592 142.529 C 192.871 142.477,193.035 142.426,193.035 142.081 C 193.035 141.709,192.876 141.692,189.552 141.692 C 186.228 141.692,186.070 141.709,186.070 142.081 M195.423 146.368 L 195.423 151.045 195.920 151.045 C 196.416 151.045,196.418 151.038,196.418 149.154 L 196.418 147.264 197.397 147.264 L 198.375 147.264 199.536 149.153 C 200.547 150.799,200.767 151.043,201.244 151.044 C 201.938 151.045,201.948 151.095,200.929 149.505 C 199.464 147.218,199.489 147.316,200.290 146.982 C 202.280 146.150,202.287 142.808,200.301 141.978 C 199.851 141.790,198.893 141.692,197.519 141.692 L 195.423 141.692 195.423 146.368 M215.124 141.777 C 215.124 141.825,215.930 143.065,216.915 144.534 L 218.706 147.205 218.706 149.125 C 218.706 151.040,218.708 151.045,219.204 151.045 L 219.701 151.045 219.701 149.004 L 219.701 146.963 221.393 144.430 C 223.308 141.562,223.274 141.643,222.539 141.728 C 222.095 141.779,221.746 142.161,220.671 143.774 C 219.011 146.262,219.215 146.261,217.593 143.791 C 216.403 141.979,216.146 141.698,215.672 141.695 C 215.371 141.693,215.124 141.730,215.124 141.777 M229.652 146.368 L 229.652 151.045 230.149 151.045 L 230.647 151.045 230.647 146.368 L 230.647 141.692 230.149 141.692 L 229.652 141.692 229.652 146.368 M233.632 146.368 L 233.632 151.045 234.129 151.045 L 234.627 151.045 234.627 147.363 C 234.627 143.210,234.619 143.225,235.844 144.925 C 240.089 150.818,240.270 151.045,240.732 151.045 L 241.194 151.045 241.194 146.368 L 241.194 141.692 240.697 141.692 L 240.199 141.692 240.199 145.274 C 240.199 147.244,240.132 148.852,240.050 148.848 C 239.968 148.844,238.742 147.232,237.325 145.266 C 235.039 142.092,234.688 141.692,234.191 141.692 L 233.632 141.692 233.632 146.368 M243.383 141.750 C 243.383 141.813,245.302 146.727,246.375 149.413 C 247.032 151.057,247.038 151.064,247.706 151.005 L 248.376 150.945 250.158 146.493 C 252.175 141.455,252.126 141.643,251.401 141.728 C 250.898 141.787,250.764 142.044,249.359 145.640 C 248.532 147.758,247.774 149.504,247.675 149.521 C 247.575 149.538,246.824 147.784,246.006 145.622 C 244.552 141.779,244.506 141.692,243.951 141.692 C 243.639 141.692,243.383 141.718,243.383 141.750 M254.129 146.368 L 254.129 151.045 257.114 151.045 L 260.100 151.045 260.100 150.547 L 260.100 150.050 257.604 150.050 L 255.108 150.050 255.166 148.408 L 255.224 146.766 257.562 146.710 C 259.723 146.658,259.900 146.625,259.900 146.269 C 259.900 145.913,259.723 145.879,257.562 145.827 L 255.224 145.771 255.224 144.179 L 255.224 142.587 257.662 142.531 C 259.935 142.479,260.100 142.449,260.100 142.083 C 260.100 141.711,259.951 141.692,257.114 141.692 L 254.129 141.692 254.129 146.368 M271.045 142.090 C 271.045 142.443,271.177 142.488,272.223 142.488 C 274.164 142.488,274.030 142.162,274.030 146.887 L 274.030 151.045 274.523 151.045 L 275.017 151.045 275.071 146.816 L 275.124 142.587 276.468 142.528 C 277.648 142.477,277.811 142.422,277.811 142.080 C 277.811 141.710,277.652 141.692,274.428 141.692 C 271.177 141.692,271.045 141.707,271.045 142.090 M295.323 146.368 L 295.323 151.045 295.821 151.045 C 296.317 151.045,296.318 151.038,296.318 149.154 L 296.318 147.264 297.304 147.264 L 298.290 147.264 299.418 149.154 C 300.426 150.843,300.608 151.045,301.119 151.045 C 301.849 151.045,301.877 151.148,300.597 149.163 C 299.312 147.170,299.318 147.202,300.145 146.957 C 301.545 146.542,302.164 144.359,301.288 142.923 C 300.700 141.958,299.863 141.692,297.419 141.692 L 295.323 141.692 295.323 146.368 M315.855 145.323 C 315.944 150.268,316.487 151.133,319.502 151.133 C 322.541 151.133,323.184 150.078,323.184 145.097 L 323.184 141.664 322.736 141.727 C 322.296 141.790,322.287 141.846,322.189 145.320 L 322.090 148.849 321.439 149.499 C 320.840 150.097,320.687 150.149,319.520 150.149 C 317.202 150.149,316.816 149.396,316.816 144.882 L 316.816 141.692 316.303 141.692 L 315.789 141.692 315.855 145.323 M326.368 146.368 L 326.368 151.045 326.866 151.045 C 327.361 151.045,327.363 151.038,327.363 149.154 L 327.363 147.264 329.005 147.263 C 331.520 147.263,332.736 146.355,332.736 144.478 C 332.736 142.482,331.537 141.692,328.511 141.692 L 326.368 141.692 326.368 146.368 M199.452 142.697 C 201.260 143.199,201.217 145.780,199.393 146.271 C 198.951 146.390,198.123 146.461,197.553 146.428 L 196.517 146.368 196.459 144.693 C 196.427 143.772,196.447 142.899,196.503 142.753 C 196.627 142.429,198.367 142.396,199.452 142.697 M210.295 142.821 C 212.706 143.965,212.811 148.377,210.461 149.754 C 207.967 151.215,205.274 149.466,205.274 146.386 C 205.274 143.373,207.751 141.614,210.295 142.821 M300.136 143.259 C 301.497 144.782,300.460 146.279,297.944 146.425 L 296.318 146.519 296.318 144.636 C 296.318 142.360,296.264 142.424,298.096 142.539 C 299.450 142.624,299.622 142.685,300.136 143.259 M310.769 143.293 C 313.821 146.199,311.127 151.476,307.326 150.036 C 305.052 149.175,304.317 145.539,306.027 143.611 C 307.257 142.225,309.490 142.075,310.769 143.293 M331.103 143.152 C 332.559 144.608,331.523 146.206,328.997 146.401 L 327.363 146.527 327.363 144.482 L 327.363 142.436 328.968 142.529 C 330.375 142.611,330.639 142.688,331.103 143.152 " stroke="none" fill="#080808" fill-rule="evenodd"></path><path id="path1" d="M0.000 99.502 L 0.000 199.005 200.000 199.005 L 400.000 199.005 400.000 99.502 L 400.000 0.000 200.000 0.000 L 0.000 0.000 0.000 99.502 M110.597 99.353 L 110.547 151.144 108.955 151.144 L 107.363 151.144 107.313 102.935 C 107.285 75.536,107.188 54.726,107.089 54.726 C 106.993 54.726,106.792 54.875,106.641 55.056 C 106.408 55.338,103.751 57.642,100.825 60.100 C 100.369 60.483,97.498 62.945,94.444 65.572 C 91.391 68.199,88.154 70.975,87.251 71.741 C 86.348 72.507,85.090 73.582,84.455 74.129 C 83.821 74.677,80.432 77.583,76.924 80.587 L 70.547 86.050 70.448 118.597 L 70.348 151.144 68.756 151.144 L 67.164 151.144 67.114 117.880 L 67.064 84.615 75.252 77.581 C 79.756 73.713,84.185 69.920,85.093 69.154 C 86.002 68.388,87.262 67.313,87.893 66.766 C 96.880 58.975,110.306 47.571,110.498 47.566 C 110.580 47.564,110.625 70.868,110.597 99.353 M210.886 54.134 C 229.424 56.458,237.238 78.542,224.288 92.007 C 221.710 94.688,217.999 96.944,214.670 97.856 L 213.328 98.224 214.049 99.410 C 222.457 113.253,230.846 127.324,230.846 127.584 C 230.846 127.697,229.945 127.751,228.637 127.718 L 226.428 127.662 225.083 125.373 C 224.343 124.114,221.637 119.592,219.070 115.323 C 216.503 111.055,214.185 107.198,213.918 106.754 C 213.651 106.309,212.454 104.316,211.258 102.326 L 209.084 98.706 195.189 98.706 L 181.294 98.706 181.294 113.234 L 181.294 127.761 179.403 127.761 L 177.512 127.761 177.512 111.252 L 177.512 94.743 194.478 94.676 C 211.231 94.610,211.463 94.604,213.098 94.170 C 229.676 89.773,231.618 66.790,216.021 59.584 C 212.488 57.951,213.493 58.029,194.876 57.957 L 178.308 57.893 178.308 56.045 C 178.308 55.028,178.368 54.136,178.441 54.063 C 178.662 53.842,209.091 53.909,210.886 54.134 M273.014 54.204 C 273.139 54.355,273.991 56.347,274.907 58.632 C 275.823 60.917,277.247 64.443,278.070 66.468 C 278.893 68.493,280.420 72.254,281.464 74.826 C 282.507 77.398,284.179 81.517,285.181 83.980 C 286.182 86.443,287.744 90.294,288.651 92.537 C 291.268 99.004,293.531 104.569,295.811 110.149 C 296.975 112.995,298.558 116.919,299.331 118.869 C 300.103 120.820,300.762 122.387,300.794 122.352 C 300.865 122.274,302.995 117.053,307.963 104.776 C 310.722 97.958,312.408 93.807,314.630 88.358 C 315.858 85.348,317.532 81.229,318.351 79.204 C 321.735 70.834,323.246 67.110,325.176 62.388 C 326.294 59.652,327.473 56.744,327.796 55.926 C 328.602 53.882,328.575 53.904,330.230 53.972 L 331.642 54.030 331.692 90.896 L 331.742 127.761 329.851 127.761 L 327.960 127.761 327.951 96.866 L 327.942 65.970 326.442 69.652 C 324.277 74.967,321.795 81.088,319.905 85.771 C 318.999 88.015,317.492 91.731,316.556 94.030 C 312.388 104.261,309.442 111.519,305.770 120.597 C 304.862 122.841,303.830 125.374,303.475 126.225 L 302.831 127.774 300.753 127.718 L 298.674 127.662 295.486 119.801 C 293.733 115.478,291.555 110.104,290.648 107.861 C 288.018 101.357,285.761 95.798,283.580 90.448 C 281.664 85.748,280.477 82.823,276.474 72.935 C 275.544 70.637,274.546 68.178,274.257 67.471 L 273.731 66.186 273.681 96.981 L 273.631 127.776 271.691 127.719 L 269.751 127.662 269.701 91.066 C 269.664 64.182,269.710 54.398,269.875 54.200 C 270.185 53.827,272.704 53.830,273.014 54.204 M251.144 91.841 L 251.144 127.761 249.254 127.761 L 247.363 127.761 247.363 91.841 L 247.363 55.920 249.254 55.920 L 251.144 55.920 251.144 91.841 M123.931 106.716 L 123.881 151.144 122.338 151.202 L 120.796 151.261 120.796 106.775 L 120.796 62.289 122.388 62.289 L 123.981 62.289 123.931 106.716 M137.264 112.488 L 137.214 151.144 135.721 151.144 L 134.229 151.144 134.179 112.488 L 134.128 73.831 135.721 73.831 L 137.314 73.831 137.264 112.488 M150.797 118.259 L 150.746 151.144 149.154 151.144 L 147.562 151.144 147.512 118.259 L 147.462 85.373 149.154 85.373 L 150.847 85.373 150.797 118.259 M182.899 141.902 C 184.020 142.466,184.231 142.823,183.737 143.317 L 183.328 143.726 182.715 143.273 C 181.306 142.231,179.053 142.619,178.944 143.922 C 178.872 144.786,178.956 144.846,181.318 145.592 C 184.652 146.645,185.464 149.373,182.876 150.827 C 180.858 151.962,176.114 150.563,177.450 149.227 L 177.861 148.817 178.717 149.384 C 180.344 150.461,182.886 150.051,182.886 148.712 C 182.886 147.762,182.544 147.497,180.509 146.869 C 178.995 146.402,178.421 146.123,178.041 145.672 C 175.859 143.079,179.549 140.216,182.899 141.902 M210.924 141.882 C 214.367 143.648,214.141 149.472,210.573 150.963 C 207.336 152.316,204.086 150.013,204.086 146.368 C 204.086 142.512,207.626 140.190,210.924 141.882 M267.958 141.965 C 269.527 142.811,268.967 143.990,267.379 143.184 C 265.566 142.263,263.881 142.649,263.881 143.984 C 263.881 144.786,264.006 144.869,266.291 145.591 C 269.203 146.511,270.180 148.740,268.402 150.405 C 267.042 151.680,263.665 151.492,262.401 150.071 C 261.844 149.446,262.619 148.553,263.234 149.109 C 264.643 150.385,267.132 150.333,267.678 149.016 C 268.081 148.041,267.483 147.481,265.334 146.822 C 262.665 146.003,261.872 144.929,262.598 143.114 C 263.287 141.393,265.869 140.839,267.958 141.965 M289.930 141.507 C 290.987 141.734,292.537 142.712,292.537 143.152 C 292.537 143.522,291.558 144.027,291.380 143.747 C 291.065 143.251,289.810 142.688,289.018 142.687 C 284.504 142.683,284.141 149.634,288.636 150.007 C 290.388 150.152,291.343 149.534,291.343 148.255 L 291.343 147.264 289.751 147.264 L 288.159 147.264 288.159 146.660 L 288.159 146.057 290.398 146.113 L 292.637 146.169 292.695 147.839 C 292.866 152.737,285.257 152.458,284.154 147.526 C 283.327 143.831,286.304 140.729,289.930 141.507 M309.632 141.507 C 313.822 142.406,314.671 148.764,310.859 150.697 C 307.487 152.406,303.876 150.146,303.882 146.330 C 303.887 143.018,306.491 140.833,309.632 141.507 M193.118 141.819 C 193.430 142.634,193.080 142.886,191.632 142.886 L 190.257 142.886 190.203 147.015 L 190.149 151.144 189.552 151.144 L 188.955 151.144 188.901 147.024 L 188.848 142.903 187.411 142.844 C 185.925 142.784,185.641 142.577,185.947 141.779 C 186.123 141.321,192.941 141.359,193.118 141.819 M200.264 141.764 C 202.560 142.723,202.649 146.132,200.402 147.063 C 199.650 147.375,199.596 147.173,200.985 149.238 C 202.229 151.090,202.259 151.244,201.374 151.244 C 200.695 151.244,200.543 151.086,199.303 149.086 C 198.317 147.495,198.301 147.481,197.470 147.472 L 196.632 147.463 196.575 149.303 L 196.517 151.144 195.920 151.144 L 195.323 151.144 195.270 146.318 L 195.217 141.493 197.416 141.493 C 198.823 141.493,199.849 141.590,200.264 141.764 M217.635 143.579 C 219.292 146.102,218.995 146.102,220.611 143.582 C 221.875 141.612,221.989 141.493,222.617 141.493 C 223.569 141.493,223.496 141.703,221.592 144.478 L 219.900 146.942 219.900 148.990 C 219.900 150.995,219.890 151.040,219.414 151.159 C 218.607 151.362,218.507 151.135,218.507 149.099 L 218.507 147.178 216.716 144.534 C 214.695 141.550,214.673 141.493,215.595 141.493 C 216.226 141.493,216.345 141.614,217.635 143.579 M230.800 146.318 L 230.746 151.144 230.149 151.144 L 229.552 151.144 229.499 146.318 L 229.446 141.493 230.149 141.493 L 230.853 141.493 230.800 146.318 M237.410 145.049 L 239.900 148.507 240.000 145.049 L 240.100 141.592 240.750 141.529 L 241.400 141.467 241.347 146.306 L 241.294 151.144 240.755 151.206 C 240.294 151.260,240.085 151.087,239.309 150.012 C 238.809 149.321,237.912 148.085,237.315 147.264 C 236.717 146.443,235.915 145.327,235.532 144.783 L 234.835 143.795 234.781 147.470 L 234.726 151.144 234.129 151.144 L 233.532 151.144 233.479 146.571 C 233.418 141.349,233.402 141.445,234.275 141.530 C 234.861 141.586,235.149 141.910,237.410 145.049 M245.450 143.687 C 245.912 144.839,246.595 146.604,246.968 147.609 C 247.340 148.614,247.683 149.399,247.729 149.352 C 247.775 149.306,248.459 147.541,249.248 145.430 L 250.683 141.592 251.411 141.530 C 252.338 141.452,252.374 141.236,250.767 145.400 C 248.527 151.206,248.507 151.244,247.669 151.244 C 246.832 151.244,247.050 151.647,244.782 145.896 C 242.928 141.192,242.980 141.451,243.896 141.530 C 244.603 141.592,244.616 141.610,245.450 143.687 M260.199 142.189 L 260.199 142.786 257.761 142.842 L 255.323 142.898 255.323 144.285 L 255.323 145.672 257.700 145.672 C 260.144 145.672,260.423 145.761,260.198 146.469 C 260.082 146.836,259.894 146.866,257.698 146.866 L 255.323 146.866 255.323 148.352 L 255.323 149.838 257.761 149.894 L 260.199 149.950 260.199 150.547 L 260.199 151.144 257.114 151.144 L 254.030 151.144 253.976 146.571 C 253.909 140.851,253.517 141.471,257.160 141.537 L 260.199 141.592 260.199 142.189 M278.112 141.900 C 278.337 142.607,277.879 142.886,276.493 142.886 L 275.224 142.886 275.224 146.961 L 275.224 151.037 274.738 151.159 C 273.863 151.379,273.831 151.230,273.831 146.962 L 273.831 142.903 272.388 142.845 L 270.945 142.786 270.883 142.139 L 270.821 141.493 274.402 141.493 C 277.836 141.493,277.988 141.509,278.112 141.900 M300.156 141.765 C 302.461 142.748,302.481 146.267,300.186 147.097 L 299.544 147.329 300.734 149.079 C 301.936 150.844,302.028 151.246,301.232 151.241 C 300.617 151.236,300.532 151.149,299.252 149.204 L 298.107 147.463 297.213 147.463 L 296.318 147.463 296.318 149.353 C 296.318 151.361,296.232 151.503,295.240 151.123 C 294.917 150.999,294.742 142.600,295.046 141.807 C 295.208 141.386,299.188 141.353,300.156 141.765 M317.015 145.075 C 317.138 149.389,317.469 150.050,319.502 150.050 C 321.536 150.050,321.867 149.389,321.990 145.075 L 322.090 141.592 322.736 141.530 L 323.383 141.467 323.383 145.020 C 323.383 150.097,322.666 151.244,319.492 151.244 C 316.360 151.244,315.622 150.059,315.622 145.031 L 315.622 141.467 316.269 141.530 L 316.915 141.592 317.015 145.075 M331.339 141.841 C 334.651 143.505,332.943 147.447,328.905 147.458 L 327.363 147.463 327.363 149.353 C 327.363 151.361,327.276 151.503,326.285 151.123 C 325.957 150.997,325.783 141.945,326.103 141.625 C 326.414 141.314,330.637 141.488,331.339 141.841 M207.247 142.958 C 204.842 144.048,204.837 148.587,207.240 149.727 C 210.102 151.085,212.843 148.115,211.759 144.831 C 211.189 143.103,208.964 142.180,207.247 142.958 M307.147 142.969 C 304.693 144.038,304.711 148.574,307.174 149.743 C 309.620 150.903,311.976 148.990,311.781 146.002 C 311.610 143.373,309.456 141.964,307.147 142.969 M196.617 144.478 L 196.617 146.070 198.174 146.070 C 200.010 146.070,200.597 145.677,200.597 144.450 C 200.597 143.278,199.982 142.886,198.146 142.886 L 196.617 142.886 196.617 144.478 M296.318 144.478 L 296.318 146.070 297.996 146.070 C 299.898 146.070,300.498 145.666,300.498 144.386 C 300.498 143.264,299.854 142.886,297.947 142.886 L 296.318 142.886 296.318 144.478 M327.363 144.478 L 327.363 146.070 328.964 146.070 C 330.801 146.070,331.542 145.622,331.542 144.513 C 331.542 143.290,330.921 142.886,329.040 142.886 L 327.363 142.886 327.363 144.478 " stroke="none" fill="#fbfbfb" fill-rule="evenodd"></path><path id="path2" d="M110.497 99.245 L 110.448 151.028 108.905 151.096 L 107.363 151.164 108.912 151.204 C 109.998 151.232,110.488 151.170,110.555 150.995 C 110.607 150.858,110.626 127.507,110.598 99.104 L 110.547 47.463 110.497 99.245 M178.393 54.195 C 178.338 54.340,178.322 55.258,178.359 56.235 L 178.426 58.010 178.467 56.071 L 178.507 54.132 194.279 54.080 L 210.050 54.027 194.272 53.979 C 181.299 53.939,178.477 53.977,178.393 54.195 M270.697 54.075 C 271.107 54.118,271.779 54.118,272.189 54.075 C 272.600 54.032,272.264 53.997,271.443 53.997 C 270.622 53.997,270.286 54.032,270.697 54.075 M329.403 54.075 C 329.813 54.118,330.485 54.118,330.896 54.075 C 331.306 54.032,330.970 53.997,330.149 53.997 C 329.328 53.997,328.993 54.032,329.403 54.075 M269.750 90.995 L 269.751 127.662 271.692 127.673 L 273.633 127.685 271.742 127.616 L 269.852 127.548 269.801 90.938 L 269.750 54.328 269.750 90.995 M223.881 60.398 C 224.586 61.109,225.207 61.692,225.262 61.692 C 225.317 61.692,224.785 61.109,224.080 60.398 C 223.374 59.687,222.753 59.104,222.698 59.104 C 222.643 59.104,223.175 59.687,223.881 60.398 M121.542 62.434 C 122.007 62.476,122.769 62.476,123.234 62.434 C 123.699 62.392,123.318 62.358,122.388 62.358 C 121.458 62.358,121.077 62.392,121.542 62.434 M220.697 62.550 C 220.697 62.584,220.988 62.875,221.343 63.197 L 221.990 63.781 221.406 63.134 C 220.861 62.531,220.697 62.396,220.697 62.550 M89.042 70.100 L 88.458 70.746 89.104 70.162 C 89.707 69.617,89.843 69.453,89.689 69.453 C 89.655 69.453,89.364 69.744,89.042 70.100 M83.072 70.896 L 82.488 71.542 83.134 70.958 C 83.737 70.413,83.873 70.249,83.719 70.249 C 83.685 70.249,83.394 70.540,83.072 70.896 M226.713 74.826 C 226.713 75.209,226.754 75.366,226.804 75.174 C 226.854 74.983,226.854 74.669,226.804 74.478 C 226.754 74.286,226.713 74.443,226.713 74.826 M147.561 118.308 L 147.562 151.144 149.055 151.157 L 150.547 151.169 149.105 151.099 L 147.663 151.028 147.612 118.250 L 147.560 85.473 147.561 118.308 M70.298 118.549 L 70.249 151.028 68.706 151.096 L 67.164 151.164 68.713 151.204 C 69.799 151.232,70.289 151.170,70.356 150.995 C 70.408 150.858,70.427 136.194,70.399 118.408 L 70.347 86.070 70.298 118.549 M221.287 89.502 L 220.199 90.647 221.343 89.559 C 221.973 88.961,222.488 88.446,222.488 88.415 C 222.488 88.267,222.297 88.439,221.287 89.502 M210.398 94.665 C 210.590 94.715,210.903 94.715,211.095 94.665 C 211.286 94.614,211.129 94.574,210.746 94.574 C 210.363 94.574,210.206 94.614,210.398 94.665 M298.558 127.363 C 298.624 127.604,299.056 127.664,300.812 127.673 L 302.985 127.684 300.903 127.616 C 299.569 127.572,298.759 127.461,298.649 127.306 C 298.526 127.134,298.500 127.150,298.558 127.363 M226.444 127.619 C 226.530 127.705,227.579 127.749,228.773 127.717 L 230.945 127.660 228.616 127.561 C 227.335 127.507,226.358 127.533,226.444 127.619 M178.464 127.709 C 179.043 127.749,179.938 127.749,180.454 127.708 C 180.971 127.667,180.498 127.634,179.403 127.635 C 178.308 127.635,177.886 127.669,178.464 127.709 M248.315 127.709 C 248.893 127.749,249.789 127.749,250.305 127.708 C 250.821 127.667,250.348 127.634,249.254 127.635 C 248.159 127.635,247.737 127.669,248.315 127.709 M328.912 127.709 C 329.490 127.749,330.386 127.749,330.902 127.708 C 331.418 127.667,330.945 127.634,329.851 127.635 C 328.756 127.635,328.334 127.669,328.912 127.709 M208.408 141.431 C 208.600 141.481,208.913 141.481,209.104 141.431 C 209.296 141.381,209.139 141.340,208.756 141.340 C 208.373 141.340,208.216 141.381,208.408 141.431 M229.547 146.318 L 229.552 151.144 230.102 151.169 C 230.598 151.190,230.603 151.184,230.155 151.106 L 229.659 151.019 229.600 146.256 L 229.541 141.492 229.547 146.318 M233.522 141.746 C 233.469 141.885,233.449 144.056,233.479 146.571 L 233.532 151.144 234.030 151.163 C 234.477 151.181,234.481 151.174,234.073 151.100 L 233.618 151.017 233.675 146.255 C 233.730 141.583,233.718 141.234,233.522 141.746 M240.097 141.741 C 239.945 142.166,239.892 148.657,240.041 148.657 C 240.118 148.657,240.208 147.045,240.240 145.074 C 240.297 141.583,240.282 141.226,240.097 141.741 M260.055 142.077 L 260.143 142.674 257.683 142.740 L 255.224 142.806 257.711 142.796 C 260.264 142.786,260.953 142.465,260.150 141.662 C 260.039 141.552,260.002 141.715,260.055 142.077 M316.815 144.537 L 316.914 147.562 316.970 144.692 C 317.001 143.114,316.957 141.752,316.871 141.667 C 316.786 141.581,316.761 142.873,316.815 144.537 M322.078 141.750 C 322.023 141.892,322.004 143.347,322.035 144.984 L 322.091 147.960 322.190 144.726 C 322.287 141.547,322.275 141.236,322.078 141.750 M326.060 141.746 C 326.006 141.885,325.987 144.056,326.016 146.571 L 326.070 151.144 326.170 146.318 C 326.267 141.595,326.258 141.229,326.060 141.746 M185.951 142.289 C 185.969 142.769,186.019 142.787,187.363 142.799 L 188.756 142.812 187.425 142.741 C 186.237 142.677,186.086 142.622,186.013 142.230 C 185.945 141.864,185.935 141.873,185.951 142.289 M254.024 146.418 L 254.030 151.144 257.114 151.144 L 260.199 151.144 260.199 150.547 L 260.199 149.950 257.711 149.940 L 255.224 149.930 257.662 149.996 L 260.100 150.062 260.100 150.553 L 260.100 151.045 257.118 151.045 L 254.137 151.045 254.078 146.368 L 254.019 141.691 254.024 146.418 M295.011 146.468 C 295.011 149.040,295.039 150.092,295.074 148.806 C 295.109 147.520,295.109 145.415,295.074 144.129 C 295.039 142.843,295.011 143.896,295.011 146.468 M211.343 142.152 C 211.343 142.186,211.634 142.477,211.990 142.799 L 212.637 143.383 212.052 142.736 C 211.507 142.133,211.343 141.998,211.343 142.152 M271.024 142.746 C 271.112 142.834,271.802 142.877,272.557 142.844 L 273.930 142.782 272.397 142.685 C 271.554 142.631,270.936 142.659,271.024 142.746 M190.182 142.819 C 190.109 142.892,190.050 144.767,190.050 146.985 C 190.050 151.011,190.049 151.018,189.602 151.101 C 189.212 151.172,189.219 151.180,189.652 151.163 L 190.149 151.144 190.203 147.024 L 190.257 142.903 191.696 142.834 L 193.134 142.766 191.725 142.726 C 190.949 142.704,190.255 142.746,190.182 142.819 M196.418 144.478 L 196.418 146.269 198.060 146.229 L 199.701 146.189 198.159 146.121 L 196.617 146.053 196.617 144.478 L 196.617 142.903 198.060 142.834 L 199.502 142.766 197.960 142.726 L 196.418 142.687 196.418 144.478 M275.070 146.915 L 275.116 151.144 275.174 147.024 L 275.232 142.904 276.571 142.834 L 277.910 142.765 276.468 142.726 L 275.025 142.687 275.070 146.915 M297.070 142.833 C 297.538 142.875,298.254 142.874,298.662 142.831 C 299.070 142.788,298.687 142.754,297.811 142.755 C 296.935 142.756,296.602 142.790,297.070 142.833 M328.115 142.833 C 328.583 142.875,329.299 142.874,329.707 142.831 C 330.114 142.788,329.731 142.754,328.856 142.755 C 327.980 142.756,327.647 142.790,328.115 142.833 M211.995 146.269 C 211.995 146.761,212.033 146.963,212.081 146.716 C 212.128 146.470,212.128 146.067,212.081 145.821 C 212.033 145.575,211.995 145.776,211.995 146.269 M284.037 146.368 C 284.039 146.915,284.077 147.116,284.123 146.813 C 284.169 146.511,284.167 146.063,284.120 145.818 C 284.073 145.573,284.036 145.821,284.037 146.368 M290.390 146.216 L 292.522 146.282 292.591 147.917 L 292.660 149.552 292.648 147.861 L 292.637 146.169 290.448 146.159 L 288.259 146.150 290.390 146.216 M297.070 146.216 C 297.538 146.258,298.254 146.257,298.662 146.214 C 299.070 146.172,298.687 146.137,297.811 146.138 C 296.935 146.139,296.602 146.174,297.070 146.216 M328.115 146.216 C 328.583 146.258,329.299 146.257,329.707 146.214 C 330.114 146.172,329.731 146.137,328.856 146.138 C 327.980 146.139,327.647 146.174,328.115 146.216 M219.775 149.055 C 219.775 150.204,219.808 150.674,219.848 150.100 C 219.888 149.525,219.888 148.585,219.848 148.010 C 219.808 147.435,219.775 147.905,219.775 149.055 M196.551 147.396 C 196.478 147.469,196.418 148.314,196.418 149.274 L 196.418 151.018 195.871 151.110 C 195.351 151.197,195.353 151.200,195.920 151.173 L 196.517 151.144 196.574 149.315 L 196.632 147.485 197.470 147.409 L 198.308 147.333 197.496 147.298 C 197.049 147.279,196.624 147.323,196.551 147.396 M297.111 147.412 C 297.601 147.455,298.138 147.596,298.305 147.725 C 298.569 147.930,298.572 147.916,298.334 147.612 C 298.135 147.359,297.810 147.273,297.140 147.298 L 296.219 147.333 297.111 147.412 M328.109 147.409 C 328.575 147.451,329.336 147.451,329.801 147.409 C 330.266 147.367,329.886 147.333,328.955 147.333 C 328.025 147.333,327.644 147.367,328.109 147.409 M269.101 148.458 C 269.101 148.841,269.142 148.998,269.192 148.806 C 269.242 148.614,269.242 148.301,269.192 148.109 C 269.142 147.918,269.101 148.075,269.101 148.458 M208.408 150.187 C 208.600 150.237,208.913 150.237,209.104 150.187 C 209.296 150.137,209.139 150.096,208.756 150.096 C 208.373 150.096,208.216 150.137,208.408 150.187 M288.607 150.187 C 288.799 150.237,289.112 150.237,289.303 150.187 C 289.495 150.137,289.338 150.096,288.955 150.096 C 288.572 150.096,288.415 150.137,288.607 150.187 M201.872 150.815 C 201.967 150.969,201.797 151.055,201.355 151.075 C 200.718 151.103,200.715 151.107,201.268 151.190 C 201.906 151.285,202.376 150.985,201.977 150.738 C 201.817 150.640,201.780 150.667,201.872 150.815 M246.945 151.104 C 247.038 151.197,247.416 151.242,247.786 151.204 C 248.441 151.136,248.437 151.132,247.617 151.035 C 247.155 150.980,246.852 151.012,246.945 151.104 M121.548 151.191 C 122.016 151.233,122.732 151.232,123.140 151.189 C 123.547 151.147,123.164 151.112,122.289 151.113 C 121.413 151.114,121.079 151.149,121.548 151.191 M134.975 151.190 C 135.386 151.233,136.057 151.233,136.468 151.190 C 136.878 151.147,136.542 151.112,135.721 151.112 C 134.900 151.112,134.565 151.147,134.975 151.190 " stroke="none" fill="#a2a2a2" fill-rule="evenodd"></path><path id="path3" d="M67.162 117.910 C 67.162 136.189,67.185 143.637,67.214 134.462 C 67.243 125.287,67.243 110.331,67.214 101.228 C 67.185 92.125,67.162 99.632,67.162 117.910 M150.744 118.308 C 150.744 136.368,150.767 143.727,150.796 134.661 C 150.825 125.595,150.825 110.819,150.796 101.825 C 150.767 92.831,150.744 100.249,150.744 118.308 M185.736 94.876 C 190.205 94.905,197.458 94.905,201.856 94.876 C 206.253 94.846,202.597 94.821,193.731 94.821 C 184.866 94.821,181.268 94.846,185.736 94.876 M188.308 98.657 C 192.112 98.687,198.336 98.687,202.139 98.657 C 205.943 98.626,202.831 98.602,195.224 98.602 C 187.617 98.602,184.505 98.626,188.308 98.657 M187.701 141.641 C 188.654 141.677,190.265 141.677,191.283 141.641 C 192.301 141.605,191.522 141.575,189.552 141.575 C 187.582 141.575,186.749 141.604,187.701 141.641 M195.353 141.642 C 195.302 141.724,195.902 141.767,196.685 141.737 C 199.110 141.644,199.390 141.558,197.375 141.524 C 196.314 141.507,195.405 141.560,195.353 141.642 M215.047 141.656 C 214.992 141.745,215.210 141.780,215.533 141.732 C 215.855 141.685,216.119 141.612,216.119 141.569 C 216.119 141.418,215.146 141.496,215.047 141.656 M233.831 141.569 C 233.831 141.612,234.095 141.685,234.417 141.732 C 234.740 141.780,234.959 141.745,234.903 141.656 C 234.805 141.496,233.831 141.418,233.831 141.569 M255.581 141.641 C 256.434 141.678,257.778 141.678,258.566 141.640 C 259.355 141.602,258.657 141.572,257.015 141.572 C 255.373 141.572,254.728 141.603,255.581 141.641 M270.975 141.642 C 270.924 141.724,271.927 141.768,273.203 141.739 C 277.483 141.643,277.936 141.570,274.489 141.531 C 272.608 141.510,271.027 141.560,270.975 141.642 M296.275 141.639 C 296.854 141.680,297.749 141.679,298.265 141.639 C 298.782 141.598,298.308 141.565,297.214 141.565 C 296.119 141.566,295.697 141.599,296.275 141.639 M315.710 141.750 C 315.655 141.892,315.638 143.347,315.672 144.984 L 315.733 147.960 315.777 144.840 C 315.820 141.778,315.829 141.718,316.269 141.633 L 316.716 141.547 316.262 141.520 C 316.013 141.505,315.764 141.608,315.710 141.750 M327.320 141.639 C 327.898 141.680,328.794 141.679,329.310 141.639 C 329.826 141.598,329.353 141.565,328.259 141.565 C 327.164 141.566,326.742 141.599,327.320 141.639 M230.733 146.368 C 230.733 148.995,230.761 150.042,230.796 148.695 C 230.830 147.348,230.830 145.199,230.795 143.919 C 230.761 142.639,230.732 143.741,230.733 146.368 M188.940 146.965 C 188.940 149.264,188.969 150.177,189.004 148.994 C 189.040 147.812,189.039 145.931,189.004 144.815 C 188.969 143.699,188.940 144.667,188.940 146.965 M255.190 144.179 C 255.191 144.945,255.227 145.234,255.270 144.821 C 255.313 144.409,255.312 143.782,255.268 143.428 C 255.224 143.075,255.189 143.413,255.190 144.179 M332.782 144.478 C 332.782 144.861,332.823 145.017,332.873 144.826 C 332.924 144.634,332.924 144.321,332.873 144.129 C 332.823 143.938,332.782 144.095,332.782 144.478 M255.193 148.358 C 255.193 149.234,255.228 149.567,255.270 149.099 C 255.312 148.631,255.312 147.915,255.269 147.507 C 255.226 147.100,255.192 147.483,255.193 148.358 " stroke="none" fill="#7c7c7c" fill-rule="evenodd"></path><path id="path4" d="M107.362 102.786 C 107.362 129.383,107.385 140.234,107.413 126.899 C 107.441 113.565,107.441 91.804,107.413 78.541 C 107.385 65.279,107.362 76.189,107.362 102.786 M247.455 56.169 C 247.403 56.306,247.384 72.448,247.412 92.040 L 247.464 127.662 247.513 91.898 L 247.562 56.134 249.403 56.069 L 251.244 56.003 249.397 55.962 C 248.071 55.932,247.523 55.991,247.455 56.169 M185.906 57.861 C 190.029 57.891,196.835 57.891,201.030 57.861 C 205.225 57.831,201.851 57.806,193.532 57.806 C 185.214 57.806,181.782 57.831,185.906 57.861 M123.879 106.766 C 123.879 131.174,123.902 141.189,123.930 129.021 C 123.959 116.853,123.959 96.883,123.930 84.643 C 123.902 72.403,123.879 82.358,123.879 106.766 M273.482 96.642 L 273.530 127.662 273.631 96.816 C 273.686 79.851,273.791 66.104,273.865 66.269 C 273.938 66.433,274.005 66.466,274.014 66.343 C 274.023 66.219,273.896 66.007,273.731 65.871 C 273.466 65.651,273.438 69.088,273.482 96.642 M327.911 85.522 C 327.938 96.440,327.984 110.388,328.012 116.517 C 328.040 122.647,328.085 113.714,328.111 96.667 C 328.138 79.619,328.092 65.672,328.010 65.672 C 327.928 65.672,327.883 74.604,327.911 85.522 M134.221 74.080 C 134.169 74.216,134.150 91.612,134.178 112.736 L 134.230 151.144 134.279 112.596 L 134.328 74.047 135.771 73.979 L 137.214 73.910 135.765 73.870 C 134.758 73.843,134.287 73.907,134.221 74.080 M230.498 75.522 C 230.500 75.960,230.541 76.116,230.589 75.868 C 230.636 75.621,230.634 75.263,230.584 75.072 C 230.535 74.882,230.496 75.085,230.498 75.522 M230.494 77.214 C 230.494 77.597,230.535 77.754,230.585 77.562 C 230.635 77.371,230.635 77.057,230.585 76.866 C 230.535 76.674,230.494 76.831,230.494 77.214 M223.968 92.189 L 223.383 92.836 224.030 92.251 C 224.386 91.930,224.677 91.639,224.677 91.605 C 224.677 91.451,224.512 91.586,223.968 92.189 M177.607 111.244 C 177.607 120.274,177.632 123.968,177.662 119.453 C 177.691 114.938,177.691 107.550,177.662 103.035 C 177.632 98.520,177.607 102.214,177.607 111.244 M181.186 98.756 C 181.134 98.893,181.114 105.453,181.143 113.333 L 181.194 127.662 181.294 113.085 C 181.348 105.067,181.368 98.507,181.337 98.507 C 181.306 98.507,181.238 98.619,181.186 98.756 M241.280 146.368 C 241.280 148.995,241.308 150.042,241.343 148.695 C 241.377 147.348,241.377 145.199,241.343 143.919 C 241.308 142.639,241.280 143.741,241.280 146.368 M277.827 142.031 C 277.812 142.431,277.693 142.475,276.468 142.539 L 275.124 142.609 276.474 142.648 C 277.847 142.687,278.204 142.493,277.945 141.847 C 277.889 141.707,277.835 141.789,277.827 142.031 M295.210 146.368 C 295.210 148.995,295.239 150.042,295.273 148.695 C 295.308 147.348,295.307 145.199,295.273 143.919 C 295.238 142.639,295.210 143.741,295.210 146.368 M323.265 144.876 C 323.265 146.682,323.295 147.420,323.332 146.517 C 323.369 145.614,323.369 144.137,323.332 143.234 C 323.295 142.331,323.265 143.070,323.265 144.876 M326.255 146.368 C 326.255 148.995,326.283 150.042,326.318 148.695 C 326.352 147.348,326.352 145.199,326.318 143.919 C 326.283 142.639,326.255 143.741,326.255 146.368 M195.309 146.468 C 195.309 149.040,195.338 150.092,195.372 148.806 C 195.407 147.520,195.407 145.415,195.372 144.129 C 195.338 142.843,195.309 143.896,195.309 146.468 M270.909 142.189 C 270.945 142.542,271.101 142.589,272.291 142.602 L 273.633 142.617 272.352 142.543 C 271.357 142.486,271.048 142.394,270.970 142.131 C 270.895 141.881,270.879 141.896,270.909 142.189 M285.460 142.935 L 284.876 143.582 285.522 142.998 C 286.125 142.453,286.261 142.289,286.107 142.289 C 286.073 142.289,285.782 142.580,285.460 142.935 M291.907 142.751 C 292.146 143.005,292.274 143.288,292.191 143.380 C 292.108 143.472,292.158 143.478,292.304 143.394 C 292.545 143.254,291.906 142.289,291.572 142.289 C 291.518 142.289,291.668 142.497,291.907 142.751 M311.244 142.351 C 311.244 142.385,311.535 142.676,311.891 142.998 L 312.537 143.582 311.953 142.935 C 311.408 142.332,311.244 142.197,311.244 142.351 M186.468 142.610 C 187.656 142.759,189.010 142.774,188.925 142.637 C 188.874 142.555,188.188 142.501,187.401 142.517 C 186.614 142.534,186.194 142.575,186.468 142.610 M190.896 142.633 C 191.306 142.675,191.978 142.675,192.388 142.633 C 192.799 142.590,192.463 142.554,191.642 142.554 C 190.821 142.554,190.485 142.590,190.896 142.633 M197.164 142.632 C 197.520 142.676,198.102 142.676,198.458 142.632 C 198.813 142.587,198.522 142.551,197.811 142.551 C 197.100 142.551,196.808 142.587,197.164 142.632 M255.254 142.637 C 255.203 142.719,255.936 142.762,256.884 142.733 C 259.923 142.639,260.265 142.558,257.773 142.522 C 256.439 142.503,255.305 142.555,255.254 142.637 M297.065 142.632 C 297.420 142.676,298.002 142.676,298.358 142.632 C 298.714 142.587,298.423 142.551,297.711 142.551 C 297.000 142.551,296.709 142.587,297.065 142.632 M327.906 142.631 C 328.259 142.675,328.886 142.676,329.299 142.633 C 329.712 142.590,329.423 142.554,328.657 142.553 C 327.891 142.552,327.553 142.587,327.906 142.631 M273.915 146.866 C 273.915 149.219,273.944 150.182,273.979 149.005 C 274.015 147.828,274.015 145.903,273.979 144.726 C 273.944 143.550,273.915 144.512,273.915 146.866 M234.672 147.413 L 234.717 151.144 234.776 147.503 C 234.819 144.857,234.896 143.901,235.060 144.002 C 235.198 144.087,235.230 144.052,235.143 143.911 C 234.726 143.235,234.630 143.944,234.672 147.413 M201.837 144.478 C 201.837 144.861,201.878 145.017,201.928 144.826 C 201.978 144.634,201.978 144.321,201.928 144.129 C 201.878 143.938,201.837 144.095,201.837 144.478 M205.231 146.368 C 205.233 146.915,205.271 147.116,205.317 146.813 C 205.363 146.511,205.361 146.063,205.314 145.818 C 205.267 145.573,205.230 145.821,205.231 146.368 M255.254 145.721 C 255.305 145.803,256.371 145.871,257.624 145.871 C 259.756 145.871,259.900 145.896,259.900 146.262 C 259.900 146.625,259.734 146.659,257.662 146.720 L 255.423 146.785 257.711 146.776 L 260.000 146.766 260.000 146.269 L 260.000 145.771 257.581 145.672 C 256.250 145.617,255.203 145.639,255.254 145.721 M197.164 146.413 C 197.520 146.457,198.102 146.457,198.458 146.413 C 198.813 146.368,198.522 146.332,197.811 146.332 C 197.100 146.332,196.808 146.368,197.164 146.413 M296.861 146.412 C 297.215 146.456,297.841 146.457,298.254 146.414 C 298.667 146.371,298.378 146.335,297.612 146.334 C 296.846 146.333,296.508 146.368,296.861 146.412 M327.914 146.413 C 328.272 146.457,328.809 146.456,329.108 146.411 C 329.407 146.365,329.114 146.329,328.458 146.330 C 327.801 146.331,327.556 146.369,327.914 146.413 M218.581 149.055 C 218.581 150.204,218.614 150.674,218.654 150.100 C 218.694 149.525,218.694 148.585,218.654 148.010 C 218.614 147.435,218.581 147.905,218.581 149.055 M291.379 148.169 C 291.359 148.722,291.254 149.282,291.145 149.414 C 291.036 149.545,291.086 149.532,291.257 149.384 C 291.482 149.189,291.546 148.848,291.491 148.140 L 291.415 147.164 291.379 148.169 M284.975 149.316 C 284.975 149.350,285.266 149.641,285.622 149.963 L 286.269 150.547 285.684 149.900 C 285.139 149.298,284.975 149.162,284.975 149.316 " stroke="none" fill="#747474" fill-rule="evenodd"></path></g></svg>